PathFileType	4	(X/Y/Z)	C:\Users\chris\Documents\GitHub\baseballds\vids\pitch1_Sports2D\pitch1_Sports2D_px_person00.trc
DataRate	CameraRate	NumFrames	NumMarkers	Units	OrigDataRate	OrigDataStartFrame	OrigNumFrames
30	30	8	22	m	30	77	154
Frame#	Time	Hip			RHip			RKnee			RAnkle			RBigToe			RSmallToe			RHeel			LHip			LKnee			LAnkle			LBigToe			LSmallToe			LHeel			Neck			Head			Nose			RShoulder			RElbow			RWrist			LShoulder			LElbow			LWrist		
		X1	Y1	Z1	X2	Y2	Z2	X3	Y3	Z3	X4	Y4	Z4	X5	Y5	Z5	X6	Y6	Z6	X7	Y7	Z7	X8	Y8	Z8	X9	Y9	Z9	X10	Y10	Z10	X11	Y11	Z11	X12	Y12	Z12	X13	Y13	Z13	X14	Y14	Z14	X15	Y15	Z15	X16	Y16	Z16	X17	Y17	Z17	X18	Y18	Z18	X19	Y19	Z19	X20	Y20	Z20	X21	Y21	Z21	X22	Y22	Z22
77	2.5666666666666664	809.080448505002	517.9281508475786	0.0	756.4635000521778	533.8937037418413	0.0	758.9429149655056	731.0183743772232	0.0	754.5857297469053	895.4074620517268	0.0	765.460207622642	951.5751179968779	0.0	732.1953739679305	948.4121732006708	0.0	760.8739978118459	915.7644422358716	0.0	859.889160771427	534.0585644144913	0.0	867.4599521724294	726.2737464882874	0.0	892.8173147431078	891.3818243862353	0.0	860.6059061190548	950.7594617111798	0.0	895.2070525612402	948.9639884529748	0.0	897.9504049307991	914.3470775842826	0.0	809.1570647820619	246.09260528395663	0.0	837.0746963889519	126.133391328501	0.0	877.0366050582221	195.43100612920503	0.0	717.8312087946227	289.4201779787156	0.0	690.0018066405653	428.5934172295095	0.0	763.3745735143965	400.4296059239441	0.0	892.8723253901389	291.82353642569336	0.0	924.9481947091824	424.31746888648456	0.0	877.8075939743435	432.21223976231994	0.0
78	2.6	809.2237482026952	517.8032009843066	0.0	757.0107840225501	533.2427656041046	0.0	759.5122716398424	730.2529995830223	0.0	756.1409938806952	894.4414585225234	0.0	768.1851887688613	951.4402840368296	0.0	733.8432072369019	947.9584261597583	0.0	763.4348065008995	914.7415909900724	0.0	860.3327039639058	532.286347719751	0.0	868.0603869068345	725.7909177592769	0.0	893.9901614129102	891.0223025259857	0.0	862.0682959605978	951.2696940864832	0.0	896.5567862237558	949.7912577185489	0.0	900.4623552312494	913.8419294375489	0.0	808.326449174886	245.97444421753096	0.0	835.1820707089158	124.666197154108	0.0	876.1913139939287	193.69022455105446	0.0	716.7174865278163	290.3526522602611	0.0	690.3531741314091	429.61956642220997	0.0	762.1831333860627	402.16582150641136	0.0	892.1996509528761	290.66570759307126	0.0	925.5400279703885	424.31460008524994	0.0	875.8196006873814	429.76715223462554	0.0
79	2.6333333333333333	808.8984376624068	517.6833840763912	0.0	757.3442376209807	533.5630279712587	0.0	760.6855967840135	730.7897904524904	0.0	757.3783836477364	894.3765116276652	0.0	770.0241237028672	954.2895122675984	0.0	735.2249427356353	951.1003374033419	0.0	765.1943713598212	914.7974222567308	0.0	860.7741560851275	532.1158599214458	0.0	868.4665135663342	725.9977937746834	0.0	894.4042128751558	891.3692796762025	0.0	862.9549625029591	952.3041117139244	0.0	897.4871817011233	951.2873516006013	0.0	902.1780900722642	914.1960758023544	0.0	807.4361344385179	245.6669008938889	0.0	833.5796408810985	123.97203547694261	0.0	875.1796953527105	192.48247790688595	0.0	714.934019910698	291.02200019425743	0.0	688.9452145725593	429.59859289484973	0.0	760.8136528690657	402.10345967288015	0.0	891.296028989831	290.56652383733825	0.0	925.7079387051406	424.84913573960347	0.0	874.3449651933141	428.09226395269417	0.0
80	2.6666666666666665	807.7331479627095	518.0910338732007	0.0	756.553490315272	534.2259759799186	0.0	761.6051438264707	732.000718748084	0.0	758.0043326851162	895.3794968985919	0.0	770.069067165853	957.6210095329108	0.0	735.7830380942684	954.9032815206948	0.0	765.9028830648183	915.7282618970523	0.0	860.4971257752167	533.0084399034605	0.0	868.1427177312529	726.695461767538	0.0	894.5751641285271	891.9534377291211	0.0	863.0435024804946	953.0499613993526	0.0	898.1703375224315	952.4107217579926	0.0	903.2879188950877	914.938822263139	0.0	805.9034504986419	245.11580735496375	0.0	832.0068010762868	123.74861893667318	0.0	873.2910887383607	191.63311538033037	0.0	712.5095200876785	290.92620478569904	0.0	686.6442306155525	429.0434522767911	0.0	758.2034229636506	400.92630514641826	0.0	890.0497387853648	290.99566834171674	0.0	924.4681484034738	425.5318712672186	0.0	873.7222742839422	426.6107168608455	0.0
81	2.7	805.6725994067099	519.5344106605528	0.0	754.5533663814431	534.8950564652672	0.0	761.2890976344431	732.7858431923485	0.0	758.1022439366204	896.8499324491424	0.0	768.8980804635237	958.4085825902014	0.0	735.5517248228961	955.6765404996013	0.0	765.7516931140582	916.4972824801112	0.0	858.8693835810952	534.0656857831987	0.0	866.3863448281502	727.0930870522546	0.0	894.8134838932169	891.8736082565536	0.0	863.0286727653272	953.6102285667575	0.0	898.9327443323091	952.877499138678	0.0	903.8604357530658	914.9628490049129	0.0	803.2159021318437	244.50568795263052	0.0	829.7465529587744	123.37618762520256	0.0	870.2305191998933	190.85666718153726	0.0	709.6137954355416	290.1747347458813	0.0	684.7673122505287	429.3749298987731	0.0	754.3007384226596	399.75622870579195	0.0	888.0465380078564	290.8733216975463	0.0	921.8956749189897	426.810143802286	0.0	871.3684061559952	424.7285123325512	0.0
82	2.7333333333333334	803.393506417884	520.8222084932845	0.0	752.2170403175273	535.3619632178061	0.0	760.0094416779159	732.7995655534976	0.0	758.0418678997187	898.0108386400561	0.0	768.2769511739068	957.9027053568026	0.0	735.9641524649529	954.8702713179717	0.0	764.990118888151	916.7731347473582	0.0	856.0203293633358	534.561010813683	0.0	863.4744926784936	727.6105807814145	0.0	894.6318852629325	891.1706879813783	0.0	863.8863277189541	954.4116302119339	0.0	900.1435988822341	953.0250978714499	0.0	902.8086127545025	914.2550438367543	0.0	799.7127107172626	244.37309989338328	0.0	826.9959744539394	123.24603166995546	0.0	866.0586369430039	191.01440998813496	0.0	706.4816357278035	289.21526947025427	0.0	683.0649205860677	430.3123778274561	0.0	749.3426246494254	398.4534290659849	0.0	885.106541294137	290.21320537308014	0.0	919.0380157240904	428.523969275221	0.0	865.7413224917459	423.17509404681624	0.0
83	2.7666666666666666	801.3199880472964	520.4551023766355	0.0	750.1841034903224	535.1973832535006	0.0	758.8252560180598	732.1772841235879	0.0	758.0689942519989	898.3086013455177	0.0	769.4573380821397	958.2879462493215	0.0	738.0737866538797	955.417761272023	0.0	764.069543241376	916.8634763274728	0.0	852.6322404366166	534.2595655028847	0.0	860.6765097649834	729.6016345488324	0.0	892.7913530641719	889.6418547234317	0.0	866.7768120983931	954.6033248218437	0.0	902.2559246163842	952.1258407398172	0.0	898.4087696928412	912.533484956581	0.0	796.1613688589127	244.98666152476383	0.0	824.4251205763545	123.61939210380295	0.0	860.6202062964456	192.7518778636927	0.0	703.5122904543375	288.5130475526167	0.0	680.3629579462138	430.4047174227462	0.0	743.2427009476817	396.0407116221825	0.0	881.9618400146893	289.4422827313973	0.0	916.3386963691562	429.66617035902686	0.0	858.2786220400493	422.1219058628466	0.0
84	2.8	798.9811997879261	518.8994383360489	0.0	748.400642501153	534.1174389693062	0.0	758.008365798855	731.1082765357306	0.0	757.8342640601993	898.0347415633478	0.0	771.7304296919202	958.8691486898779	0.0	740.8623448028821	956.585382168482	0.0	762.9751371031109	917.0071558273207	0.0	849.3510471768705	533.3724652685951	0.0	858.8064753681625	732.7823026981259	0.0	887.7487075916008	886.1463455151904	0.0	872.6222320618577	952.9566354941361	0.0	905.1173778705954	948.5638920896382	0.0	888.6602801143251	908.5468087024735	0.0	793.4564764076003	245.71765943227808	0.0	821.9221124133654	123.19082880672062	0.0	854.4670918989913	194.05249142675845	0.0	701.5320993449232	288.4818133507496	0.0	676.6605687361422	429.40060117151904	0.0	737.1716002600236	391.35132661694536	0.0	879.6969543958749	288.87845824280816	0.0	913.6131715643085	430.0690052260347	0.0	851.0184471540833	419.9330729966132	0.0
